<svg width="21" height="21" viewBox="0 0 21 21" fill="none" xmlns="http://www.w3.org/2000/svg">
<g clip-path="url(#clip0_36_260)">
<path d="M10.5 0.799805C12.9119 0.799805 15.2313 1.69824 17.0107 3.30957L17.3594 3.64062C19.1785 5.45973 20.2002 7.9274 20.2002 10.5C20.2002 12.9119 19.3018 15.2313 17.6904 17.0107L17.3594 17.3594C15.5403 19.1785 13.0726 20.2002 10.5 20.2002C8.08806 20.2002 5.76867 19.3018 3.98926 17.6904L3.64062 17.3594C1.82152 15.5403 0.799805 13.0726 0.799805 10.5C0.799805 8.08806 1.69824 5.76867 3.30957 3.98926L3.64062 3.64062C5.45973 1.82152 7.9274 0.799805 10.5 0.799805ZM4.14258 5.98145C3.232 7.25381 2.7002 8.81481 2.7002 10.5C2.7002 14.8063 6.19369 18.2998 10.5 18.2998C12.1852 18.2998 13.7462 17.768 15.0186 16.8574L15.3057 16.6514L4.34863 5.69434L4.14258 5.98145ZM10.5 2.7002C8.81481 2.7002 7.25381 3.232 5.98145 4.14258L5.69434 4.34863L16.6514 15.3057L16.8574 15.0186C17.768 13.7462 18.2998 12.1852 18.2998 10.5C18.2998 6.19369 14.8063 2.7002 10.5 2.7002Z" fill="#111111" stroke="#AAAAAA" stroke-width="0.6"/>
</g>
<defs>
<clipPath id="clip0_36_260">
<rect width="20" height="20" fill="white" transform="translate(0.5 0.5)"/>
</clipPath>
</defs>
</svg>
