<svg width="21" height="21" viewBox="0 0 21 21" fill="none" xmlns="http://www.w3.org/2000/svg">
<g clip-path="url(#clip0_28_2339)">
<path d="M4.78613 1H19.0713C19.6501 1 20 1.39536 20 1.75V14.25C20 14.6046 19.6501 15 19.0713 15H18.5713V18.5H19.0713C19.6501 18.5 20 18.8954 20 19.25C20 19.6046 19.6501 20 19.0713 20H4.78613C2.6314 20 1 18.4835 1 16.75V4.25C1 2.51646 2.6314 1 4.78613 1ZM4.78613 15C3.78462 15 2.85742 15.7218 2.85742 16.75C2.85742 17.7782 3.78462 18.5 4.78613 18.5H16.7139V15H4.78613ZM6.92871 7.5C6.32451 7.5 5.71387 7.94448 5.71387 8.625C5.71387 9.30552 6.32451 9.75 6.92871 9.75H15.5C16.1042 9.75 16.7139 9.30552 16.7139 8.625C16.7139 7.94448 16.1042 7.5 15.5 7.5H6.92871ZM6.92871 5C6.32451 5 5.71387 5.44448 5.71387 6.125C5.71387 6.80552 6.32451 7.25 6.92871 7.25H15.5C16.1042 7.25 16.7139 6.80552 16.7139 6.125C16.7139 5.44448 16.1042 5 15.5 5H6.92871Z" fill="#111111" stroke="#AAAAAA"/>
</g>
<defs>
<clipPath id="clip0_28_2339">
<rect width="20" height="20" fill="white" transform="translate(0.5 0.5)"/>
</clipPath>
</defs>
</svg>
