<svg width="800" height="800" viewBox="0 0 800 800" fill="none" xmlns="http://www.w3.org/2000/svg">
<g clip-path="url(#clip0_212_43)">
<path d="M640 480H560V320H640C728.36 320 800 248.36 800 160C800 71.64 728.36 0 640 0C551.63 0 480 71.64 480 160V240H320V160C320 71.64 248.36 0 160 0C71.64 0 0 71.64 0 160C0 248.36 71.64 320 160 320H240V480H160C71.64 480 0 551.64 0 640C0 728.36 71.64 800 160 800C248.37 800 320 728.36 320 640V560H480V639.8C480 639.88 479.99 639.94 479.99 640C479.99 728.36 551.63 800 639.99 800C728.35 800 799.99 728.36 799.99 640C799.99 551.64 728.36 480.02 640 480ZM640 80C684.18 80 720 115.82 720 160C720 204.18 684.18 240 640 240H560V160C560 115.82 595.82 80 640 80ZM80 160C80 115.82 115.82 80 160 80C204.18 80 240 115.82 240 160V240H160C115.82 240 80 204.17 80 160ZM160 720C115.82 720 80 684.18 80 640C80 595.82 115.82 560 160 560H240V640C240 684.18 204.18 720 160 720ZM320 480V320H480V480H320ZM640 720C595.82 720 560 684.18 560 640V560H639.99C684.17 560 719.99 595.82 719.99 640C719.99 684.18 684.18 720 640 720Z" fill="white"/>
</g>
<defs>
<clipPath id="clip0_212_43">
<rect width="800" height="800" fill="white"/>
</clipPath>
</defs>
</svg>
