<svg width="20" height="16" viewBox="0 0 20 16" fill="none" xmlns="http://www.w3.org/2000/svg">
<g clip-path="url(#clip0_194_83)">
<path d="M28.256 3.92221C28.256 3.57069 28.7374 3.28645 29.3328 3.28645C29.9281 3.28645 30.4095 3.57069 30.4095 3.92221V12.0795C30.4095 12.431 29.9281 12.7152 29.3328 12.7152C28.7374 12.7152 28.256 12.431 28.256 12.0795V3.92221ZM-0.5 5.35183C-0.5 5.00032 -0.0185969 4.71607 0.576748 4.71607C1.17209 4.71607 1.6535 5.00032 1.6535 5.35183V10.6482C1.6535 10.9997 1.17209 11.2839 0.576748 11.2839C-0.0185969 11.2839 -0.5 10.9997 -0.5 10.6482V5.35183ZM3.60759 3.92221C3.60759 3.57069 4.089 3.28645 4.68434 3.28645C5.27969 3.28645 5.76109 3.57069 5.76109 3.92221V12.0795C5.76109 12.431 5.27969 12.7152 4.68434 12.7152C4.089 12.7152 3.60759 12.431 3.60759 12.0795V3.92221ZM7.73228 2.33785C7.73228 1.98802 8.20798 1.70546 8.79193 1.70546C9.37873 1.70546 9.85159 1.98802 9.85159 2.33785V13.6638C9.85159 14.0137 9.37589 14.2962 8.79193 14.2962C8.20514 14.2962 7.73228 14.0137 7.73228 13.6638V2.33785ZM11.8228 0.635762C11.8228 0.284243 12.3042 0 12.8995 0C13.4949 0 13.9763 0.284243 13.9763 0.635762V15.3642C13.9763 15.7158 13.4949 16 12.8995 16C12.3042 16 11.8228 15.7158 11.8228 15.3642V0.635762ZM24.1484 5.35183C24.1484 5.00032 24.6298 4.71607 25.2252 4.71607C25.8205 4.71607 26.3019 5.00032 26.3019 5.35183V10.6482C26.3019 10.9997 25.8205 11.2839 25.2252 11.2839C24.6298 11.2839 24.1484 10.9997 24.1484 10.6482V5.35183ZM20.0408 3.92221C20.0408 3.57069 20.5222 3.28645 21.1176 3.28645C21.7129 3.28645 22.1943 3.57069 22.1943 3.92221V12.0795C22.1943 12.431 21.7129 12.7152 21.1176 12.7152C20.5222 12.7152 20.0408 12.431 20.0408 12.0795V3.92221ZM15.9475 2.33785C15.9475 1.98802 16.4232 1.70546 17.0071 1.70546C17.5939 1.70546 18.0668 1.98802 18.0668 2.33785V13.6638C18.0668 14.0137 17.5911 14.2962 17.0071 14.2962C16.4203 14.2962 15.9475 14.0137 15.9475 13.6638V2.33785ZM32.3807 2.33785C32.3807 1.98802 32.8564 1.70546 33.4403 1.70546C34.0271 1.70546 34.5 1.98802 34.5 2.33785V13.6638C34.5 14.0137 34.0243 14.2962 33.4403 14.2962C32.8535 14.2962 32.3807 14.0137 32.3807 13.6638V2.33785Z" fill="#7B7D7C"/>
</g>
<defs>
<clipPath id="clip0_194_83">
<rect width="20" height="16" fill="white"/>
</clipPath>
</defs>
</svg>
