<svg width="21" height="17" viewBox="0 0 21 17" fill="none" xmlns="http://www.w3.org/2000/svg">
<g clip-path="url(#clip0_28_2344)">
<path d="M16 6.5H17C18.6582 6.5 20 7.84177 20 9.5C20 10.696 19.2995 11.7279 18.2852 12.2109L18 12.3467V13.5C18 13.777 17.777 14 17.5 14H15.5C15.223 14 15 13.777 15 13.5V12.999C15.6271 12.1643 16 11.1251 16 10C16 8.75983 15.5463 7.62441 14.7979 6.75C15.1653 6.58956 15.5713 6.5 16 6.5ZM12.5039 8.67773H12V12.6445L12.874 11.6562C13.2648 11.2147 13.5 10.6352 13.5 10.0029C13.5 9.37209 13.2659 8.78872 12.873 8.34863L12.5039 8.67773ZM8.12598 8.34375C7.73521 8.78532 7.5 9.36482 7.5 9.99707V10C7.5 10.6322 7.73521 11.2118 8.12598 11.6533L9 12.6416V7.35547L8.12598 8.34375ZM18.5039 8.17773H18V12.1445L18.874 11.1562C19.2648 10.7147 19.5 10.1352 19.5 9.50293C19.5 8.87209 19.2659 8.28872 18.873 7.84863L18.5039 8.17773ZM2.12695 7.84473C1.73395 8.28489 1.5 8.86896 1.5 9.5C1.5 10.131 1.73395 10.7151 2.12695 11.1553L3 12.1328V8.1748H2.49707L2.12695 7.84473ZM10.5 2C10.848 2 11.1833 2.12124 11.4502 2.33984L11.5605 2.43945C11.8419 2.72076 12 3.10218 12 3.5C12 3.89782 11.8419 4.27924 11.5605 4.56055C11.2792 4.84185 10.8978 5 10.5 5C10.1022 5 9.72076 4.84185 9.43945 4.56055C9.15815 4.27924 9 3.89782 9 3.5C9 3.15199 9.12124 2.81669 9.33984 2.5498L9.43945 2.43945C9.72076 2.15815 10.1022 2 10.5 2ZM4.5 2C4.83152 2 5.14937 2.13179 5.38379 2.36621C5.61821 2.60063 5.75 2.91848 5.75 3.25C5.75 3.58152 5.61821 3.89937 5.38379 4.13379C5.14937 4.36821 4.83152 4.5 4.5 4.5C4.16848 4.5 3.85063 4.36821 3.61621 4.13379C3.38179 3.89937 3.25 3.58152 3.25 3.25C3.25 2.91848 3.38179 2.60063 3.61621 2.36621C3.85063 2.13179 4.16848 2 4.5 2ZM16.5 2C16.8315 2 17.1494 2.13179 17.3838 2.36621C17.6182 2.60063 17.75 2.91848 17.75 3.25C17.75 3.58152 17.6182 3.89937 17.3838 4.13379C17.1494 4.36821 16.8315 4.5 16.5 4.5C16.1685 4.5 15.8506 4.36821 15.6162 4.13379C15.3818 3.89937 15.25 3.58152 15.25 3.25C15.25 2.91848 15.3818 2.60063 15.6162 2.36621C15.8506 2.13179 16.1685 2 16.5 2ZM9 12.8467L8.71484 12.7109C7.70052 12.2279 7 11.196 7 10C7 8.34177 8.34177 7 10 7H11C12.6582 7 14 8.34177 14 10C14 11.196 13.2995 12.2279 12.2852 12.7109L12 12.8467V14.5C12 14.777 11.777 15 11.5 15H9.5C9.22302 15 9 14.777 9 14.5V12.8467ZM3 12.3467L2.71484 12.2109C1.70052 11.7279 1 10.696 1 9.5C1 7.84177 2.34177 6.5 4 6.5H5C5.42847 6.5 5.83389 6.59066 6.20117 6.75098C5.45249 7.62382 5 8.76017 5 10C5 11.1251 5.37286 12.1643 6 12.999V13.5C6 13.777 5.77698 14 5.5 14H3.5C3.22302 14 3 13.777 3 13.5V12.3467Z" fill="#111111" stroke="#AAAAAA"/>
</g>
<defs>
<clipPath id="clip0_28_2344">
<rect width="20" height="16" fill="white" transform="translate(0.5 0.5)"/>
</clipPath>
</defs>
</svg>
