<svg width="21" height="21" viewBox="0 0 21 21" fill="none" xmlns="http://www.w3.org/2000/svg">
<g clip-path="url(#clip0_28_2354)">
<path d="M10.5005 1C10.9043 1.00002 11.3016 1.02475 11.6909 1.07324L12.0776 1.12988H12.0796C12.2011 1.14969 12.3131 1.23851 12.3647 1.37695L12.3823 1.43945L12.8706 3.66895L12.9272 3.9248L13.1694 4.02441C13.7447 4.26107 14.2839 4.5753 14.7729 4.95117L14.981 5.11035L15.23 5.03125L17.4058 4.33984C17.5701 4.28763 17.7352 4.3388 17.8257 4.44629V4.44727C18.0515 4.72046 18.2621 5.00614 18.4565 5.30371L18.645 5.60449L18.8257 5.91504C19.0146 6.25651 19.1802 6.60821 19.3247 6.9707L19.4019 7.18066C19.4454 7.29936 19.4222 7.44159 19.3306 7.55176L19.2866 7.59668L19.2847 7.59863L17.5933 9.1377L17.3999 9.31445L17.4341 9.57324C17.4743 9.87693 17.4966 10.1873 17.4966 10.5C17.4966 10.8127 17.4743 11.1231 17.4341 11.4268L17.3999 11.6855L17.5933 11.8623L19.2847 13.4014L19.2866 13.4033C19.4134 13.5172 19.4512 13.6828 19.4019 13.8184C19.2405 14.2549 19.0465 14.6749 18.8218 15.0811L18.6411 15.3916C18.4578 15.697 18.258 15.9904 18.0425 16.2715L17.8218 16.5488L17.8198 16.5498C17.7432 16.6434 17.6098 16.6963 17.4644 16.6719L17.4019 16.6562L15.2261 15.9648L14.9771 15.8857L14.769 16.0449C14.28 16.4208 13.7408 16.735 13.1655 16.9717L12.9233 17.0713L12.8667 17.3271L12.3784 19.5566C12.345 19.7088 12.245 19.8144 12.1274 19.8535L12.0757 19.8662H12.0737C11.562 19.9515 11.0351 19.9961 10.4966 19.9961C10.0926 19.9961 9.6946 19.9714 9.30518 19.9229L8.91846 19.8662H8.9165C8.79499 19.8464 8.68297 19.7576 8.63135 19.6191L8.61377 19.5566L8.12549 17.3271L8.06885 17.0713L7.82666 16.9717L7.61279 16.8789C7.11746 16.6552 6.65105 16.3738 6.22314 16.0449L6.01514 15.8857L5.76514 15.9648L3.59326 16.6602C3.449 16.7057 3.3046 16.6718 3.21045 16.5898L3.17334 16.5518C2.94786 16.2789 2.7377 15.9935 2.54346 15.6963L2.35498 15.3955L2.17432 15.085C2.00622 14.7811 1.85527 14.4697 1.72217 14.1494L1.59424 13.8223C1.55111 13.7038 1.57415 13.562 1.66553 13.4521L1.70947 13.4072L1.71143 13.4053L3.40283 11.8662L3.59619 11.6904L3.56201 11.4316C3.52165 11.1234 3.50049 10.8126 3.50049 10.5C3.50049 10.1873 3.52176 9.87693 3.56201 9.57324L3.59619 9.31445L3.40283 9.1377L1.71143 7.59863L1.70947 7.59668L1.66553 7.55176C1.57415 7.44186 1.55111 7.30015 1.59424 7.18164C1.75564 6.74513 1.94962 6.32511 2.17432 5.91895L2.35498 5.6084C2.53825 5.30299 2.73812 5.00959 2.95361 4.72852L3.17432 4.45117L3.17627 4.4502C3.25292 4.35665 3.38628 4.30367 3.53174 4.32812L3.59424 4.34375L5.77002 5.03516L6.01904 5.11426L6.22705 4.95508C6.7161 4.5792 7.25532 4.26498 7.83057 4.02832L8.07275 3.92871L8.12939 3.67285L8.61768 1.44336C8.65112 1.29117 8.75109 1.18562 8.86865 1.14648L8.92041 1.13379L8.92529 1.13281C9.43499 1.04417 9.96169 1 10.5005 1ZM10.5005 6.875C9.53919 6.875 8.61681 7.25685 7.93701 7.93652C7.25719 8.61634 6.87549 9.53859 6.87549 10.5C6.87549 11.4013 7.21094 12.2677 7.81299 12.9326L7.93701 13.0635C8.61681 13.7431 9.53919 14.125 10.5005 14.125C11.4616 14.1249 12.3833 13.743 13.063 13.0635C13.7428 12.3837 14.1255 11.4614 14.1255 10.5C14.1255 9.59873 13.7891 8.73234 13.187 8.06738L13.063 7.93652C12.3833 7.25697 11.4616 6.87513 10.5005 6.875Z" fill="#111111" stroke="#AAAAAA"/>
</g>
<defs>
<clipPath id="clip0_28_2354">
<rect width="20" height="20" fill="white" transform="translate(0.5 0.5)"/>
</clipPath>
</defs>
</svg>
