<svg width="21" height="23" viewBox="0 0 21 23" fill="none" xmlns="http://www.w3.org/2000/svg">
<g clip-path="url(#clip0_28_2349)">
<path d="M8.45996 14.1562H12.54C16.6583 14.1562 20 17.5144 20 21.666C19.9999 22.1294 19.6268 22.5 19.1738 22.5H1.82617C1.37317 22.5 1.00011 22.1294 1 21.666C1 17.5144 4.34171 14.1562 8.45996 14.1562ZM10.5 0.5C11.8817 0.5 13.2075 1.05218 14.1855 2.03613C15.1638 3.02046 15.7139 4.35661 15.7139 5.75L15.708 6.01074C15.6439 7.30913 15.1026 8.54111 14.1855 9.46387C13.2075 10.4478 11.8817 11 10.5 11C9.1183 11 7.79252 10.4478 6.81445 9.46387C5.83624 8.47954 5.28613 7.14339 5.28613 5.75L5.29199 5.48926C5.35606 4.19087 5.89743 2.95889 6.81445 2.03613C7.79252 1.05218 9.1183 0.5 10.5 0.5Z" stroke="#AAAAAA"/>
</g>
<defs>
<clipPath id="clip0_28_2349">
<rect width="20" height="23" fill="white" transform="translate(0.5)"/>
</clipPath>
</defs>
</svg>
