<svg width="319" height="319" viewBox="0 0 319 319" fill="none" xmlns="http://www.w3.org/2000/svg">
<mask id="mask0_474_587" style="mask-type:luminance" maskUnits="userSpaceOnUse" x="0" y="0" width="319" height="319">
<path d="M0 0H318.021V318.021H0V0Z" fill="white"/>
</mask>
<g mask="url(#mask0_474_587)">
<mask id="mask1_474_587" style="mask-type:luminance" maskUnits="userSpaceOnUse" x="0" y="0" width="319" height="319">
<path d="M159.01 0C71.1927 0 0 71.1927 0 159.01C0 246.828 71.1927 318.021 159.01 318.021C246.828 318.021 318.021 246.828 318.021 159.01C318.021 71.1927 246.828 0 159.01 0Z" fill="white"/>
</mask>
<g mask="url(#mask1_474_587)">
<path d="M0 0H318.021V318.021H0V0Z" fill="white"/>
</g>
</g>
<mask id="mask2_474_587" style="mask-type:luminance" maskUnits="userSpaceOnUse" x="91" y="88" width="227" height="230">
<path d="M91 88.4205H318V318H91V88.4205Z" fill="white"/>
</mask>
<g mask="url(#mask2_474_587)">
<path d="M304.35 250.73C297.189 246.183 287.261 241.957 276.405 238.813C265.644 235.696 255.063 233.983 246.606 233.983C235.159 233.983 228.421 237.127 226.561 243.408C226.561 243.422 225.835 245.981 224.922 249.044C224.875 249.212 224.821 249.4 224.781 249.595L222.772 256.568C220.461 255.91 218.379 254.667 216.693 252.9L156.026 189.856C153.608 187.33 152.311 183.964 152.318 180.418C152.735 180.297 153.158 180.169 153.601 180.035C155.852 180.277 157.907 179.873 159.398 178.993L168.252 174.11C170.63 172.786 172.605 171.691 172.807 171.571C173.035 171.476 173.25 171.369 173.465 171.248C185.194 164.712 177.213 140.468 166.815 121.686C163.745 116.144 147.703 88.481 133.321 88.481C131.521 88.481 129.834 88.9042 128.316 89.7304C128.236 89.7707 128.155 89.8245 128.074 89.8715L123.198 92.5652C123.03 92.6526 122.835 92.7735 122.653 92.8877C115.432 96.8578 110.199 101.137 104.637 107.592C101.016 111.798 98.047 116.352 95.81 121.135C91.2689 130.835 89.9388 141.294 92.0616 150.639C95.0106 178.745 117.293 216.249 153.272 253.652C187.088 288.812 226.567 313.15 256.313 317.174C259.222 317.563 261.915 317.758 264.535 317.758C273.577 317.758 281.604 315.394 289.068 310.517C300.716 302.919 308.468 292.191 314.158 275.8C314.245 275.565 314.332 275.27 314.413 274.954L315.253 272.079C315.615 270.829 315.884 269.909 315.898 269.842C315.972 269.654 316.039 269.459 316.092 269.264C317.899 263.05 313.943 256.816 304.35 250.73Z" fill="#008C6B"/>
</g>
</svg>
